<svg xmlns="http://www.w3.org/2000/svg" width="880" height="176" fill="none"><path fill="#000" d="M230.76 164.43V41.49h14.16a19.129 19.129 0 0 1 17.17 10.7l33 67.28 32.52-67.19a19.11 19.11 0 0 1 17.21-10.79h14.09v122.94H337V79.6l-33.5 67.27h-17.33L252.72 79.6v84.83h-21.96zM374 77.32v87.11h22V77.32h-22z"/><path fill="#00E0CA" d="M396.5 41.49h-12.75a9.748 9.748 0 0 0-9.75 9.75V64h12.75a9.748 9.748 0 0 0 9.75-9.75V41.49z"/><path fill="#000" d="M485 85.4c-5.833-6.793-14.007-10.19-24.52-10.19h-1c-21.77.69-29.67 22.72-29.67 22.72V77.32h-19.43v87.11h22v-45c0-7.96 1.97-14.167 5.91-18.62a19.356 19.356 0 0 1 15.19-6.67c6.267 0 10.897 2 13.89 6 2.993 4 4.48 9.74 4.46 17.22v47.07h22v-49.18c-.053-13.1-2.997-23.05-8.83-29.85zm74.44 10.71V77.32h-23V54s-17.41.74-21.23 16.75l-.19 6.61h-15.1v18.79h14.57v37.94c0 11.333 2.693 19.237 8.08 23.71 5.387 4.473 12.53 6.683 21.43 6.63h14.92v-19.15h-10.63c-4.35 0-7.4-.79-9.17-2.37-1.77-1.58-2.67-4.48-2.67-8.68V96.11h22.99zm51.81 70.43a55.32 55.32 0 0 1-23.33-4.66 37.667 37.667 0 0 1-16-13.35c-3.88-5.787-5.88-12.84-6-21.16h23.16a21.218 21.218 0 0 0 6.09 14.49c3.827 3.927 9.117 5.887 15.87 5.88 5.827 0 10.457-1.433 13.89-4.3a14.23 14.23 0 0 0 5.15-11.5c0-5.033-1.517-8.957-4.55-11.77a34.097 34.097 0 0 0-12.09-6.85l-16.13-5.62c-9.26-3.267-16.32-7.48-21.18-12.64-4.86-5.16-7.29-12.01-7.29-20.55-.12-7.26 1.567-13.497 5.06-18.71a34.58 34.58 0 0 1 14.32-12.11 53.158 53.158 0 0 1 42.12.08 34.997 34.997 0 0 1 14.41 12.3 35.416 35.416 0 0 1 5.57 18.79h-23.5a17 17 0 0 0-4.89-11.5c-3.147-3.333-7.52-5-13.12-5a18.4 18.4 0 0 0-12.1 3.6c-3.26 2.52-4.89 6.187-4.89 11 0 4.1 1.26 7.347 3.78 9.74a29.743 29.743 0 0 0 10.29 6.06c4.347 1.64 9.323 3.397 14.93 5.27a100.845 100.845 0 0 1 16.29 7.38A33.795 33.795 0 0 1 649 112.53c2.973 4.627 4.46 10.57 4.46 17.83a34.434 34.434 0 0 1-19 31.17c-6.307 3.34-14.043 5.01-23.21 5.01zm52.83-2.11V41.49h78.4v18.09H686V93.3h51.29v17.56H686v35.48h56.44v18.09h-78.36zm146.84 2.11c-12 0-22.49-2.693-31.47-8.08a56.617 56.617 0 0 1-21.11-22.4c-5.093-9.54-7.637-20.573-7.63-33.1.007-12.527 2.55-23.563 7.63-33.11a56.66 56.66 0 0 1 21.11-22.39c8.967-5.38 19.457-8.073 31.47-8.08 11.9 0 22.367 2.693 31.4 8.08a55.998 55.998 0 0 1 21.1 22.39C868.473 79.403 871 90.453 871 103c0 12.547-2.513 23.58-7.54 33.1a55.916 55.916 0 0 1-21.1 22.4c-9.067 5.353-19.547 8.033-31.44 8.04zm0-20.2c11.44 0 20.563-3.863 27.37-11.59 6.807-7.727 10.207-18.31 10.2-31.75 0-13.46-3.4-24.057-10.2-31.79-6.8-7.733-15.923-11.597-27.37-11.59-11.427 0-20.573 3.863-27.44 11.59-6.867 7.727-10.3 18.323-10.3 31.79 0 13.473 3.433 24.07 10.3 31.79 6.867 7.72 16.013 11.57 27.44 11.55z"/><path fill="#00E0CA" d="M164.22 27.83v59.73L162.35 102a79.703 79.703 0 0 1-77.83 62.45H9l57.88-67.9 25.57 16 71.77-84.72z"/><path fill="#AAF5ED" d="M88.73 9.26h51.56L86.64 72.79 60.56 56.46 9 117.7V89A79.69 79.69 0 0 1 88.73 9.26z"/></svg>